<?xml version="1.0" standalone="no"?>
<!DOCTYPE svg PUBLIC "-//W3C//DTD SVG 20010904//EN"
 "http://www.w3.org/TR/2001/REC-SVG-20010904/DTD/svg10.dtd">
<svg version="1.0" xmlns="http://www.w3.org/2000/svg"
 width="260.000000pt" height="260.000000pt" viewBox="0 0 260.000000 260.000000"
 preserveAspectRatio="xMidYMid meet">
<metadata>
Created by potrace 1.11, written by Peter Selinger 2001-2013
</metadata>
<g transform="translate(0.000000,260.000000) scale(0.100000,-0.100000)"
fill="#000000" stroke="none">
<path d="M0 1300 l0 -1300 1300 0 1300 0 0 1300 0 1300 -1300 0 -1300 0 0
-1300z m2143 916 c18 -7 80 -60 138 -117 114 -111 128 -135 114 -207 -5 -27
-26 -55 -85 -114 -42 -43 -86 -78 -96 -78 -11 0 -89 70 -188 169 -154 155
-168 171 -155 187 8 10 47 50 87 88 91 88 122 99 185 72z m-562 -216 c36 -20
22 -52 -59 -133 l-77 -77 -408 0 -407 -1 0 -554 0 -555 550 0 550 0 0 181 0
181 82 84 c86 88 117 103 138 64 7 -14 10 -119 8 -318 l-3 -299 -25 -36 c-14
-21 -43 -46 -66 -57 -40 -20 -58 -20 -697 -18 -647 3 -656 3 -684 24 -15 11
-38 36 -50 54 l-23 33 0 659 c0 703 -1 687 48 731 49 44 71 46 600 47 329 0
510 -4 523 -10z m376 -212 c90 -90 163 -170 163 -179 0 -10 -173 -190 -384
-401 l-383 -384 -164 -18 c-177 -19 -212 -15 -224 25 -4 12 1 96 10 188 l18
166 381 383 c242 242 389 382 401 382 12 0 83 -64 182 -162z"/>
</g>
</svg>
